<svg width="95" height="43" viewBox="0 0 95 43" fill="none" xmlns="http://www.w3.org/2000/svg">
<path d="M86.4878 0.0432301C84.1923 0.353762 81.5254 1.66896 78.3592 4.0497C77.178 4.93868 76.5873 5.45623 75.467 6.57658C73.8778 8.17187 72.8731 9.49924 72.0268 11.1311C69.6887 15.6368 69.7678 19.9051 72.2338 22.4076C73.5855 23.7776 76.2707 25.1598 78.7245 25.7504C80.0336 26.067 80.5938 26.1279 82.1952 26.1279C83.4738 26.1218 83.7966 26.1036 84.4663 25.9879C87.3829 25.4642 89.8976 24.2769 91.846 22.5051C92.6376 21.7866 92.7898 21.4699 92.4488 21.2447C92.3088 21.1533 92.2418 21.1533 91.8826 21.2142C91.2006 21.336 89.928 21.75 88.3267 22.3772C85.5501 23.4671 84.8743 23.6315 83.413 23.5828C82.6275 23.5584 82.3535 23.5219 81.769 23.3697C79.0533 22.6573 77.2145 21.0072 76.1916 18.3646C76.082 18.0784 75.8871 17.4452 75.7653 16.9642C75.5522 16.1483 75.534 16.0143 75.534 15.2289C75.5279 14.5043 75.5522 14.2668 75.6984 13.6458C76.2464 11.3015 77.2693 9.14608 78.5662 7.59342C80.399 5.39534 83.0476 3.95837 86.1834 3.46517C87.115 3.31904 89.1304 3.31904 89.6662 3.46517C90.61 3.72091 91.1397 4.25673 91.1458 4.96303C91.1458 5.37708 90.9571 5.68761 90.2203 6.47307C89.0817 7.69085 88.4058 8.82946 87.8944 10.3943C87.529 11.5025 87.3525 12.3732 87.389 12.8968C87.4194 13.3839 87.7117 13.9563 88.1805 14.4495C88.8381 15.1497 89.6297 15.2289 90.5247 14.693C90.9449 14.4434 92.1139 13.2378 92.5341 12.6228C93.2708 11.5573 93.9284 9.89501 94.5495 7.55689C94.9574 6.01032 95.0001 5.73632 95.0001 4.84735C94.994 3.60522 94.7017 2.76495 93.9893 2.00993C93.1125 1.06616 91.8095 0.548605 89.4348 0.189363C88.2536 0.0066967 87.1333 -0.0481033 86.4878 0.0432301Z" fill="white"/>
<path d="M62.8021 1.82728C62.3515 1.93688 62.2602 2.00386 61.4625 2.77106C60.6832 3.52607 60.2204 3.82443 59.5202 4.02536C59.2218 4.11669 59.0209 4.12278 58.2963 4.08625C57.5048 4.04972 57.4013 4.05581 57.1577 4.16541C56.6828 4.37243 56.5001 4.77429 56.5001 5.59629C56.5001 5.85811 56.5427 6.2478 56.5975 6.46091L56.695 6.84451L56.2261 7.28899C55.4772 8.00139 55.0936 8.64681 53.9306 11.1737C52.9686 13.2683 52.5241 14.3095 52.4997 14.5774C52.4632 14.9123 52.6215 15.101 53.0234 15.1923C53.4739 15.2958 55.0023 15.3811 55.2214 15.3202C55.9826 15.101 56.5123 14.4617 57.3708 12.702C58.0345 11.3503 58.6921 10.37 59.4167 9.65756C60.1534 8.9269 60.5249 8.72597 61.1946 8.69552C61.8157 8.66508 62.1688 8.8173 62.6133 9.29832C63.3257 10.0655 63.7276 10.924 63.9772 12.2149C64.2999 13.8589 64.4156 15.2898 64.4583 18.2429C64.5009 21.3299 64.4156 23.5645 64.1903 25.0928C64.0077 26.3532 63.9651 27.7963 64.099 28.1799C64.2573 28.6183 64.6287 28.7644 65.0732 28.5513C65.7308 28.2408 66.7355 26.7916 67.2348 25.4277C67.6366 24.35 68.1542 21.8536 68.4404 19.6433L68.5804 18.5777L68.964 18.1211C70.0113 16.885 69.9869 15.9839 68.9092 15.7221C68.8179 15.7038 68.7083 15.6246 68.6657 15.5455C68.5622 15.3689 68.5682 14.0537 68.6778 13.2195C68.8483 11.88 68.7387 10.2177 68.4221 9.17045C67.9654 7.68477 67.3322 6.83233 66.1997 6.19909C65.0854 5.57802 64.4035 4.96305 64.3182 4.51247C64.2878 4.33589 64.3243 4.24456 64.5618 3.87923C65.262 2.82586 65.402 2.02821 64.921 1.80901C64.7262 1.71768 63.1918 1.72986 62.8021 1.82728Z" fill="white"/>
<path d="M25.0207 8.23272C22.8165 8.3545 21.6718 8.47018 20.1496 8.71374C16.7763 9.26783 13.6223 10.3395 10.9858 11.8373C7.35687 13.9015 4.32462 17.2077 2.364 21.2568C1.14623 23.7593 0.372943 26.2436 0.0867663 28.5513C-0.0289221 29.495 -0.0289221 31.1756 0.0867663 32.0036C0.768719 36.7956 4.51946 40.8934 9.34793 42.1172C12.228 42.8418 15.516 42.6165 20.5454 41.3501C24.357 40.388 27.097 39.2007 28.3026 37.9768C28.9297 37.3375 29.3194 36.5094 29.088 36.278C28.9115 36.1015 28.193 36.2841 26.4333 36.96C22.7556 38.3726 20.2348 38.8962 17.507 38.8049C15.4185 38.7379 13.805 38.33 12.1184 37.441C10.7849 36.7469 9.59757 35.7605 8.78776 34.6827C6.93065 32.2289 6.41919 27.8754 7.50909 23.8994C8.23367 21.2629 9.90811 18.395 11.887 16.404C15.4794 12.7994 20.9655 11.2102 25.2947 12.5254C26.7134 12.9577 27.3344 13.4448 27.3344 14.1389C27.3344 14.3825 27.1518 14.8696 26.89 15.3202C26.7438 15.5698 26.3176 16.3126 25.9401 16.9641C24.2596 19.8564 23.4741 21.6708 23.0357 23.6315C22.8226 24.5813 22.7982 25.586 22.9748 26.1218C23.127 26.5846 23.5593 27.0656 23.9977 27.2604C24.43 27.4492 25.319 27.4918 25.8792 27.3518C27.6937 26.8951 29.2037 25.2754 30.3789 22.5355C30.799 21.5673 31.5418 19.3388 31.8037 18.2611C32.2299 16.5258 32.2969 16.0021 32.2969 14.3155C32.2969 13.0551 32.2786 12.7019 32.1812 12.2757C31.9133 11.0458 31.4566 10.1751 30.7198 9.48702C30.0805 8.89032 29.2646 8.53716 28.1016 8.34841C27.5536 8.25707 25.7818 8.19009 25.0207 8.23272Z" fill="white"/>
<path d="M61.432 16.9095C58.5458 17.2078 54.2471 17.3905 49.9788 17.3905C46.7091 17.3905 44.7363 17.5123 44.4988 17.7315C44.2918 17.9142 44.3466 18.2856 44.6389 18.7362C45.3756 19.8748 45.7227 21.1534 45.7227 22.7487C45.7227 23.8021 45.6374 24.2709 45.1686 25.7201C44.6267 27.3884 44.5597 27.705 44.5232 28.7158C44.444 30.8469 45.059 32.3143 46.1306 32.5579C46.9405 32.7466 47.8721 32.1073 49.2055 30.4329C50.198 29.1907 50.8252 28.1739 51.7872 26.2681C52.2743 25.2999 52.8345 24.2709 53.0293 23.9787C53.9914 22.5417 55.3614 21.3605 56.9566 20.5872C57.803 20.1792 58.5946 19.9235 59.7575 19.6921C60.9692 19.4546 61.5476 19.2537 62.0835 18.8945C63.0455 18.2551 63.5083 17.0678 62.8811 16.8486C62.7776 16.8121 62.6497 16.7877 62.5949 16.7877C62.5401 16.7938 62.0165 16.8486 61.432 16.9095Z" fill="white"/>
<path d="M38.684 17.6647C37.9594 17.823 37.0339 18.2736 36.4311 18.7729C35.7614 19.3148 34.7628 20.6787 34.1904 21.8295C33.8677 22.4749 32.8144 25.087 32.8144 25.2392C32.8144 25.3671 31.9619 27.4008 31.006 29.5562C29.4107 33.1487 29.2219 33.6784 29.2219 34.4517C29.2219 34.817 29.2402 34.8901 29.3741 35.018C29.6908 35.3407 30.0926 35.1824 31.0303 34.3847C31.3591 34.0985 32.2603 33.3922 33.0275 32.8138C33.8008 32.2353 34.6167 31.6143 34.8541 31.4255C35.5604 30.8654 36.1267 30.774 36.8452 31.1028C37.2714 31.3037 37.655 31.6508 38.1299 32.278C38.8484 33.2278 39.4695 33.7758 40.2428 34.1655C40.9856 34.543 41.7893 34.7318 42.1912 34.6222C42.8853 34.4334 42.8792 33.8489 42.1608 31.9005C41.9477 31.3281 41.7285 30.6583 41.6797 30.4087C41.5275 29.6598 41.5032 28.3202 41.5884 25.7324C41.6919 22.8037 41.6858 21.7199 41.5884 20.6178C41.4423 19.0408 41.2657 18.4684 40.7786 18.03C40.2915 17.5916 39.5852 17.4698 38.684 17.6647Z" fill="white"/>
</svg>
