<svg width="95" height="43" viewBox="0 0 95 43" fill="none" xmlns="http://www.w3.org/2000/svg">
<path d="M86.4878 0.0434742C84.1923 0.354006 81.5254 1.6692 78.3592 4.04995C77.178 4.93892 76.5873 5.45648 75.467 6.57683C73.8778 8.17211 72.8731 9.49948 72.0268 11.1313C69.6887 15.6371 69.7678 19.9054 72.2338 22.4079C73.5855 23.7779 76.2707 25.16 78.7245 25.7507C80.0336 26.0673 80.5938 26.1282 82.1952 26.1282C83.4738 26.1221 83.7966 26.1038 84.4663 25.9881C87.3829 25.4645 89.8976 24.2772 91.846 22.5053C92.6376 21.7868 92.7898 21.4702 92.4488 21.2449C92.3088 21.1536 92.2418 21.1536 91.8826 21.2145C91.2006 21.3362 89.928 21.7503 88.3267 22.3774C85.5501 23.4673 84.8743 23.6317 83.413 23.583C82.6275 23.5587 82.3535 23.5221 81.769 23.3699C79.0533 22.6575 77.2145 21.0074 76.1916 18.3649C76.082 18.0787 75.8871 17.4455 75.7653 16.9644C75.5522 16.1485 75.534 16.0146 75.534 15.2291C75.5279 14.5045 75.5522 14.2671 75.6984 13.646C76.2464 11.3018 77.2693 9.14633 78.5662 7.59367C80.399 5.39559 83.0476 3.95861 86.1834 3.46542C87.115 3.31928 89.1304 3.31928 89.6662 3.46542C90.61 3.72115 91.1397 4.25697 91.1458 4.96328C91.1458 5.37732 90.9571 5.68785 90.2203 6.47332C89.0817 7.69109 88.4058 8.82971 87.8944 10.3945C87.529 11.5027 87.3525 12.3734 87.389 12.8971C87.4194 13.3842 87.7117 13.9565 88.1805 14.4497C88.8381 15.1499 89.6297 15.2291 90.5248 14.6933C90.9449 14.4436 92.1139 13.238 92.5341 12.6231C93.2708 11.5575 93.9284 9.89526 94.5495 7.55713C94.9574 6.01056 95.0001 5.73656 95.0001 4.84759C94.994 3.60546 94.7017 2.7652 93.9893 2.01018C93.1125 1.0664 91.8095 0.54885 89.4348 0.189607C88.2536 0.00694103 87.1333 -0.0478588 86.4878 0.0434742Z" fill="white"/>
<path d="M62.8021 1.82752C62.3515 1.93712 62.2602 2.0041 61.4625 2.7713C60.6832 3.52632 60.2204 3.82467 59.5202 4.02561C59.2218 4.11694 59.0209 4.12303 58.2963 4.08649C57.5048 4.04996 57.4013 4.05605 57.1577 4.16565C56.6828 4.37267 56.5001 4.77454 56.5001 5.59653C56.5001 5.85835 56.5427 6.24804 56.5975 6.46115L56.695 6.84475L56.2261 7.28924C55.4772 8.00163 55.0936 8.64705 53.9306 11.1739C52.9686 13.2685 52.5241 14.3097 52.4997 14.5776C52.4632 14.9125 52.6215 15.1013 53.0234 15.1926C53.4739 15.2961 55.0023 15.3813 55.2214 15.3204C55.9826 15.1013 56.5123 14.4619 57.3708 12.7022C58.0345 11.3505 58.6921 10.3702 59.4167 9.65781C60.1534 8.92714 60.5249 8.72621 61.1946 8.69576C61.8157 8.66532 62.1688 8.81754 62.6133 9.29856C63.3257 10.0658 63.7276 10.9243 63.9772 12.2151C64.2999 13.8591 64.4156 15.29 64.4583 18.2431C64.5009 21.3302 64.4156 23.5648 64.1903 25.0931C64.0077 26.3535 63.9651 27.7965 64.099 28.1801C64.2573 28.6185 64.6287 28.7647 65.0732 28.5516C65.7308 28.241 66.7355 26.7919 67.2348 25.428C67.6366 24.3502 68.1542 21.8538 68.4404 19.6435L68.5804 18.578L68.964 18.1213C70.0113 16.8853 69.9869 15.9841 68.9092 15.7223C68.8179 15.704 68.7083 15.6249 68.6657 15.5457C68.5622 15.3692 68.5682 14.054 68.6778 13.2198C68.8483 11.8802 68.7387 10.218 68.4221 9.1707C67.9654 7.68501 67.3322 6.83257 66.1997 6.19933C65.0854 5.57827 64.4035 4.96329 64.3182 4.51271C64.2878 4.33614 64.3243 4.2448 64.5618 3.87947C65.262 2.8261 65.402 2.02846 64.921 1.80926C64.7262 1.71793 63.1918 1.7301 62.8021 1.82752Z" fill="white"/>
<path d="M25.0207 8.23296C22.8165 8.35474 21.6718 8.47043 20.1496 8.71398C16.7763 9.26807 13.6223 10.3397 10.9858 11.8376C7.35687 13.9017 4.32462 17.2079 2.364 21.257C1.14623 23.7596 0.372943 26.2438 0.0867663 28.5515C-0.0289221 29.4953 -0.0289221 31.1758 0.0867663 32.0039C0.768719 36.7958 4.51946 40.8936 9.34793 42.1175C12.228 42.8421 15.516 42.6168 20.5454 41.3503C24.357 40.3883 27.097 39.2009 28.3026 37.9771C28.9297 37.3377 29.3194 36.5096 29.088 36.2783C28.9115 36.1017 28.193 36.2844 26.4333 36.9602C22.7556 38.3728 20.2348 38.8965 17.507 38.8051C15.4185 38.7382 13.805 38.3302 12.1184 37.4412C10.7849 36.7471 9.59757 35.7607 8.78776 34.683C6.93065 32.2292 6.41919 27.8756 7.50909 23.8996C8.23367 21.2631 9.90811 18.3953 11.887 16.4042C15.4794 12.7996 20.9655 11.2104 25.2947 12.5256C26.7134 12.9579 27.3344 13.445 27.3344 14.1392C27.3344 14.3827 27.1518 14.8698 26.89 15.3204C26.7438 15.57 26.3176 16.3129 25.9401 16.9644C24.2596 19.8566 23.4741 21.6711 23.0357 23.6317C22.8226 24.5816 22.7982 25.5862 22.9748 26.122C23.127 26.5848 23.5593 27.0658 23.9977 27.2607C24.4301 27.4494 25.319 27.492 25.8792 27.352C27.6937 26.8953 29.2037 25.2757 30.3789 22.5357C30.799 21.5676 31.5418 19.3391 31.8037 18.2613C32.2299 16.526 32.2969 16.0024 32.2969 14.3157C32.2969 13.0553 32.2786 12.7022 32.1812 12.276C31.9133 11.046 31.4566 10.1753 30.7198 9.48727C30.0805 8.89056 29.2646 8.5374 28.1016 8.34865C27.5536 8.25732 25.7818 8.19034 25.0207 8.23296Z" fill="white"/>
<path d="M61.432 16.9097C58.5458 17.2081 54.2471 17.3908 49.9788 17.3908C46.7091 17.3908 44.7363 17.5125 44.4988 17.7317C44.2918 17.9144 44.3466 18.2858 44.6389 18.7364C45.3756 19.875 45.7227 21.1537 45.7227 22.749C45.7227 23.8023 45.6374 24.2712 45.1686 25.7203C44.6267 27.3887 44.5597 27.7053 44.5232 28.716C44.444 30.8471 45.059 32.3146 46.1306 32.5581C46.9405 32.7469 47.8721 32.1075 49.2055 30.4331C50.198 29.191 50.8252 28.1741 51.7872 26.2683C52.2743 25.3002 52.8345 24.2712 53.0293 23.9789C53.9914 22.5419 55.3614 21.3607 56.9566 20.5874C57.803 20.1795 58.5946 19.9237 59.7575 19.6923C60.9692 19.4549 61.5476 19.2539 62.0835 18.8947C63.0455 18.2554 63.5083 17.068 62.8811 16.8488C62.7776 16.8123 62.6497 16.788 62.5949 16.788C62.5401 16.794 62.0165 16.8488 61.432 16.9097Z" fill="white"/>
<path d="M38.684 17.6647C37.9594 17.823 37.0339 18.2736 36.4311 18.7729C35.7614 19.3148 34.7628 20.6787 34.1904 21.8295C33.8677 22.4749 32.8144 25.087 32.8144 25.2392C32.8144 25.3671 31.9619 27.4008 31.006 29.5562C29.4107 33.1487 29.2219 33.6784 29.2219 34.4517C29.2219 34.817 29.2402 34.8901 29.3741 35.018C29.6908 35.3407 30.0926 35.1824 31.0303 34.3847C31.3591 34.0985 32.2603 33.3922 33.0275 32.8138C33.8008 32.2353 34.6167 31.6143 34.8541 31.4255C35.5604 30.8654 36.1267 30.774 36.8452 31.1028C37.2714 31.3037 37.655 31.6508 38.1299 32.278C38.8484 33.2278 39.4695 33.7758 40.2428 34.1655C40.9856 34.543 41.7893 34.7318 42.1912 34.6222C42.8853 34.4334 42.8792 33.8489 42.1608 31.9005C41.9477 31.3281 41.7285 30.6583 41.6797 30.4087C41.5275 29.6598 41.5032 28.3202 41.5884 25.7324C41.6919 22.8037 41.6858 21.7199 41.5884 20.6178C41.4423 19.0408 41.2657 18.4684 40.7786 18.03C40.2915 17.5916 39.5852 17.4698 38.684 17.6647Z" fill="white"/>
</svg>
