<svg width="21" height="12" viewBox="0 0 21 12" fill="none" xmlns="http://www.w3.org/2000/svg">
<path d="M10.0058 9.88955L1.27877 0.336055C1.20844 0.257399 1.12494 0.195215 1.03311 0.153102C0.941279 0.110989 0.842935 0.0897808 0.74377 0.0907078C0.644604 0.0916348 0.546587 0.114676 0.45539 0.158501C0.364193 0.202325 0.281627 0.26606 0.212469 0.34602C0.143312 0.425979 0.0889362 0.520574 0.0524894 0.62433C0.0160426 0.728086 -0.00175181 0.838946 0.000135901 0.950491C0.00202361 1.06204 0.023556 1.17205 0.0634869 1.27417C0.103418 1.37629 0.160954 1.46849 0.232767 1.54543L9.48277 11.6704C9.62278 11.8237 9.81042 11.9094 10.0058 11.9094C10.2011 11.9094 10.3888 11.8237 10.5288 11.6704L19.7788 1.54543C19.8506 1.46849 19.9081 1.37629 19.948 1.27417C19.988 1.17205 20.0095 1.06204 20.0114 0.950491C20.0133 0.838946 19.9955 0.728086 19.959 0.62433C19.9226 0.520574 19.8682 0.425979 19.7991 0.34602C19.7299 0.26606 19.6473 0.202325 19.5561 0.158501C19.4649 0.114676 19.3669 0.0916348 19.2678 0.0907078C19.1686 0.0897808 19.0703 0.110989 18.9784 0.153102C18.8866 0.195215 18.8031 0.257399 18.7328 0.336055L10.0058 9.88955Z" fill="#636363"/>
</svg>
